<svg width="20" height="21" viewBox="0 0 20 21" fill="none" xmlns="http://www.w3.org/2000/svg">
<path d="M5.63339 18.8333H14.3667C16.6667 18.8333 17.5834 17.425 17.6917 15.7083L18.1251 8.825C18.2417 7.025 16.8084 5.5 15.0001 5.5C14.4917 5.5 14.0251 5.20833 13.7917 4.75833L13.1917 3.55C12.8084 2.79166 11.8084 2.16666 10.9584 2.16666H9.05006C8.19173 2.16666 7.19173 2.79166 6.80839 3.55L6.20839 4.75833C5.97506 5.20833 5.50839 5.5 5.00006 5.5C3.19172 5.5 1.75839 7.025 1.87506 8.825L2.30839 15.7083C2.40839 17.425 3.33339 18.8333 5.63339 18.8333Z" stroke="#FF783E" stroke-width="1.5" stroke-linecap="round" stroke-linejoin="round"/>
<path opacity="0.4" d="M8.75 7.16666H11.25" stroke="#FF783E" stroke-width="1.5" stroke-linecap="round" stroke-linejoin="round"/>
<path opacity="0.4" d="M9.99996 15.5C11.4916 15.5 12.7083 14.2833 12.7083 12.7917C12.7083 11.3 11.4916 10.0833 9.99996 10.0833C8.50829 10.0833 7.29163 11.3 7.29163 12.7917C7.29163 14.2833 8.50829 15.5 9.99996 15.5Z" stroke="#FF783E" stroke-width="1.5" stroke-linecap="round" stroke-linejoin="round"/>
</svg>
