<svg width="16" height="16" viewBox="0 0 16 16" fill="none" xmlns="http://www.w3.org/2000/svg">
<path opacity="0.4" d="M7.33334 1.33334H6C2.66667 1.33334 1.33334 2.66668 1.33334 6.00001V10C1.33334 13.3333 2.66667 14.6667 6 14.6667H10C13.3333 14.6667 14.6667 13.3333 14.6667 10V8.66668" stroke="#292A2B" stroke-width="1.05124" stroke-linecap="round" stroke-linejoin="round"/>
<path d="M10.6933 2.01335L5.44 7.26668C5.24 7.46668 5.04 7.86002 5 8.14668L4.71334 10.1533C4.60667 10.88 5.12 11.3867 5.84667 11.2867L7.85334 11C8.13334 10.96 8.52667 10.76 8.73334 10.56L13.9867 5.30668C14.8933 4.40002 15.32 3.34668 13.9867 2.01335C12.6533 0.680016 11.6 1.10668 10.6933 2.01335Z" stroke="#292A2B" stroke-width="1.05124" stroke-miterlimit="10" stroke-linecap="round" stroke-linejoin="round"/>
<path opacity="0.4" d="M9.94 2.76666C10.3867 4.36 11.6333 5.60666 13.2333 6.06" stroke="#292A2B" stroke-width="1.05124" stroke-miterlimit="10" stroke-linecap="round" stroke-linejoin="round"/>
</svg>
