<svg width="22" height="22" viewBox="0 0 22 22" fill="none" xmlns="http://www.w3.org/2000/svg">
<path d="M20.1667 10.1475V15.2625C20.1667 17.9667 17.9667 20.1667 15.2625 20.1667H6.73754C4.03337 20.1667 1.83337 17.9667 1.83337 15.2625V8.65332H19.9284C20.0659 9.06582 20.1392 9.48749 20.1575 9.93665C20.1667 10.0008 20.1667 10.0833 20.1667 10.1475Z" fill="#4B4B4B"/>
<path opacity="0.4" d="M19.9284 8.65331H1.83337V5.88498C1.83337 3.64831 3.64837 1.83331 5.88504 1.83331H8.02087C9.51504 1.83331 9.98254 2.31915 10.5784 3.11665L11.8617 4.82165C12.1459 5.19748 12.1825 5.25248 12.7142 5.25248H15.2717C17.4442 5.24331 19.2959 6.67331 19.9284 8.65331Z" fill="#4B4B4B"/>
</svg>
