<svg width="25" height="25" viewBox="0 0 25 25" fill="none" xmlns="http://www.w3.org/2000/svg">
<path d="M17.8963 0.136307C22.1015 0.136307 24.9256 3.08094 24.9256 7.4625V17.5855C24.9256 21.9671 22.1015 24.9117 17.8963 24.9117H13.773C13.2589 24.9117 12.8416 24.4944 12.8416 23.9803C12.8416 23.4661 13.2589 23.0488 13.773 23.0488H17.8963C21.0346 23.0488 23.0627 20.904 23.0627 17.5855V7.4625C23.0627 4.1428 21.0346 1.99921 17.8963 1.99921H7.15349C4.02256 1.99921 1.99944 4.1428 1.99944 7.4625V17.5855C1.99944 20.904 4.02256 23.0488 7.15349 23.0488H8.04893C8.56309 23.0488 8.98038 23.4661 8.98038 23.9803C8.98038 24.4944 8.56309 24.9117 8.04893 24.9117H7.15349C2.95698 24.9117 0.136536 21.9671 0.136536 17.5855V7.4625C0.136536 3.08094 2.95698 0.136307 7.15349 0.136307H17.8963ZM16.6438 11.9886C17.5019 11.9625 18.3415 12.2892 18.9401 12.9064L21.5196 15.5654C21.8773 15.9355 21.8686 16.5254 21.4985 16.8831C21.1296 17.242 20.5397 17.2308 20.182 16.8632L17.6025 14.2042C17.3691 13.9633 17.0635 13.8279 16.7195 13.8503C16.3842 13.864 16.0824 14.0155 15.8688 14.275L13.1005 17.6432C12.6124 18.2368 11.8921 18.597 11.1246 18.6305C10.3558 18.6467 9.60818 18.3685 9.06918 17.8208L7.96882 16.6981C7.80737 16.5316 7.60245 16.3851 7.37393 16.4422C7.14914 16.4435 6.94174 16.5341 6.78774 16.6956L4.88757 18.7013C4.70501 18.895 4.4591 18.9919 4.21196 18.9919C3.9822 18.9919 3.7512 18.9075 3.57112 18.7373C3.19854 18.3834 3.18239 17.7934 3.53634 17.4196L5.43527 15.4151C5.94198 14.8786 6.62753 14.5818 7.36648 14.5793C8.07935 14.6265 8.79347 14.8687 9.30515 15.4002L10.3993 16.5155C10.5694 16.6894 10.793 16.7862 11.0426 16.7688C11.286 16.7577 11.5059 16.6484 11.6611 16.4596L14.4294 13.0915C14.9758 12.427 15.7831 12.0246 16.6438 11.9886ZM8.28403 5.88599C9.9979 5.88599 11.3926 7.28068 11.3926 8.9958C11.3926 10.7109 9.9979 12.1056 8.28403 12.1056C6.56891 12.1056 5.17421 10.7109 5.17421 8.9958C5.17421 7.28068 6.56891 5.88599 8.28403 5.88599ZM8.28403 7.74889C7.59599 7.74889 7.03712 8.30777 7.03712 8.9958C7.03712 9.68383 7.59599 10.2427 8.28403 10.2427C8.97082 10.2427 9.52969 9.68383 9.52969 8.9958C9.52969 8.30777 8.97082 7.74889 8.28403 7.74889Z" fill="#B0B0B0"/>
</svg>
