<svg width="18" height="18" viewBox="0 0 18 18" fill="none" xmlns="http://www.w3.org/2000/svg">
<path d="M1.7175 5.83501V13.1325C1.7175 14.5575 2.73 15.1425 3.96 14.4375L5.7225 13.4325C6.105 13.215 6.7425 13.1925 7.14 13.395L11.0775 15.3675C11.475 15.5625 12.1125 15.5475 12.495 15.33L15.7425 13.47C16.155 13.23 16.5 12.645 16.5 12.165V4.86751C16.5 3.44251 15.4875 2.85751 14.2575 3.56251L12.495 4.56751C12.1125 4.78501 11.475 4.80751 11.0775 4.60501L7.14 2.64001C6.7425 2.44501 6.105 2.46001 5.7225 2.67751L2.475 4.53751C2.055 4.77751 1.7175 5.36251 1.7175 5.83501Z" stroke="#292A2B" stroke-width="1.5" stroke-linecap="round" stroke-linejoin="round"/>
<path opacity="0.4" d="M6.42001 3V12.75" stroke="#292A2B" stroke-width="1.5" stroke-linecap="round" stroke-linejoin="round"/>
<path opacity="0.4" d="M11.7975 4.965V15" stroke="#292A2B" stroke-width="1.5" stroke-linecap="round" stroke-linejoin="round"/>
</svg>
