<svg width="24" height="24" viewBox="0 0 24 24" fill="none" xmlns="http://www.w3.org/2000/svg">
<path d="M10.5901 17L14.8301 12.71C14.9238 12.617 14.9982 12.5064 15.0489 12.3846C15.0997 12.2627 15.1259 12.132 15.1259 12C15.1259 11.868 15.0997 11.7373 15.0489 11.6154C14.9982 11.4936 14.9238 11.383 14.8301 11.29L10.5901 7.05001C10.4971 6.95628 10.3865 6.88189 10.2646 6.83112C10.1428 6.78035 10.0121 6.75421 9.88006 6.75421C9.74804 6.75421 9.61734 6.78035 9.49548 6.83112C9.37362 6.88189 9.26302 6.95628 9.17006 7.05001C8.98381 7.23737 8.87926 7.49082 8.87926 7.75501C8.87926 8.01919 8.98381 8.27265 9.17006 8.46001L12.7101 12L9.17006 15.54C8.98531 15.7263 8.88116 15.9777 8.88006 16.24C8.87929 16.3716 8.90452 16.5021 8.95428 16.6239C9.00405 16.7458 9.07737 16.8566 9.17006 16.95C9.25967 17.0471 9.36764 17.1254 9.48771 17.1805C9.60779 17.2357 9.7376 17.2664 9.86963 17.2711C10.0017 17.2757 10.1333 17.2542 10.257 17.2076C10.3806 17.1611 10.4938 17.0905 10.5901 17Z" fill="#5B5B5B"/>
</svg>
